<svg width="20" height="20" viewBox="0 0 20 20" fill="none" xmlns="http://www.w3.org/2000/svg">
<path d="M19.7057 4.44495C19.5273 4.11232 19.2717 3.83512 18.964 3.64039C18.6563 3.44567 18.3069 3.34006 17.95 3.33388H4.73021L4.13118 0.822847C4.07066 0.580453 3.93564 0.367244 3.7481 0.217947C3.56056 0.0686492 3.33155 -0.00794058 3.09839 0.000651624H1.0328C0.758881 0.000651624 0.496186 0.117711 0.302499 0.326078C0.108812 0.534445 0 0.817052 0 1.11173C0 1.4064 0.108812 1.68901 0.302499 1.89738C0.496186 2.10574 0.758881 2.2228 1.0328 2.2228H2.31346L5.16398 13.6224C5.2245 13.8648 5.35953 14.078 5.54707 14.2273C5.73461 14.3766 5.96361 14.4532 6.19678 14.4446H15.4919C15.6827 14.444 15.8695 14.3866 16.0317 14.2787C16.194 14.1709 16.3253 14.0168 16.4111 13.8335L19.7987 6.54489C19.9455 6.2138 20.0139 5.84876 19.9977 5.48235C19.9814 5.11593 19.8812 4.75953 19.7057 4.44495Z" fill="white"/>
<path d="M5.68042 20C6.53602 20 7.22961 19.2538 7.22961 18.3334C7.22961 17.4129 6.53602 16.6668 5.68042 16.6668C4.82482 16.6668 4.13123 17.4129 4.13123 18.3334C4.13123 19.2538 4.82482 20 5.68042 20Z" fill="white"/>
<path d="M16.0083 20C16.8639 20 17.5575 19.2538 17.5575 18.3334C17.5575 17.4129 16.8639 16.6668 16.0083 16.6668C15.1527 16.6668 14.4591 17.4129 14.4591 18.3334C14.4591 19.2538 15.1527 20 16.0083 20Z" fill="white"/>
</svg>
