<svg width="70" height="39" viewBox="0 0 70 39" fill="none" xmlns="http://www.w3.org/2000/svg">
<path d="M55.4442 18.8862C55.4688 21.7794 54.9507 24.6515 53.9167 27.354C63.8991 25.3665 70.0046 22.3012 70 18.8696V18.8658C69.9934 15.4351 63.8817 12.3872 53.8968 10.425C54.9368 13.1239 55.4616 15.9937 55.4442 18.8858V18.8862Z" fill="#E46E2C"/>
<path d="M8.26112 19.0873L8.25531 14.7209C1.41623 15.8224 0.136881 17.3798 0.13937 19.1014C0.14186 20.823 1.42577 22.3696 8.26651 23.4562L8.26112 19.0873Z" fill="#E46E2C"/>
<path d="M27.7111 29.7038C32.8206 29.5251 38.1902 29.1717 43.7915 28.5923C46.6622 28.2954 49.4564 27.956 52.1739 27.5741C54.3337 21.986 54.3265 15.7929 52.1535 10.2097C49.41 9.83729 46.5896 9.5055 43.6923 9.21435C38.0487 8.6503 32.6367 8.31021 27.4845 8.14265C23.9158 3.31921 17.1468 -0.0111699 8.26692 2.81532e-05L8.27729 8.01574C8.27729 9.48227 8.65076 10.3553 10.1475 10.3553L10.1758 10.3503L10.1866 18.9446L10.1978 27.8201C8.613 27.8201 8.30302 28.6587 8.30509 30.1314L8.31505 38.1774C17.3647 38.165 24.2498 34.6861 27.7111 29.7038ZM49.5629 18.8932C49.5638 19.5524 49.3691 20.197 49.0034 20.7456C48.6377 21.2942 48.1174 21.7221 47.5084 21.9752C46.8994 22.2283 46.229 22.2952 45.5819 22.1674C44.9349 22.0397 44.3403 21.723 43.8733 21.2575C43.4063 20.792 43.0879 20.1985 42.9584 19.5522C42.8289 18.9058 42.8941 18.2356 43.1457 17.6262C43.3973 17.0169 43.8241 16.4958 44.3721 16.1289C44.92 15.762 45.5645 15.5657 46.224 15.5649C47.1084 15.5639 47.9568 15.914 48.5829 16.5381C49.2091 17.1623 49.5616 18.0094 49.5629 18.8932ZM38.6994 18.9073C38.7002 19.5664 38.5056 20.2109 38.1396 20.7594C37.774 21.3079 37.2541 21.7357 36.6449 21.9886C36.0361 22.2416 35.3656 22.3084 34.7186 22.1807C34.0717 22.0529 33.4775 21.7362 33.0106 21.2708C32.5434 20.8053 32.2251 20.2119 32.0956 19.5656C31.9661 18.9193 32.0317 18.2492 32.2832 17.64C32.5346 17.0307 32.9612 16.5097 33.5094 16.1429C34.0572 15.7761 34.7016 15.5798 35.361 15.579C36.2453 15.578 37.0939 15.9281 37.7197 16.5522C38.3459 17.1764 38.6982 18.0235 38.6994 18.9073ZM21.167 18.9297C21.1662 18.2706 21.3608 17.6261 21.7268 17.0776C22.0924 16.5291 22.6123 16.1013 23.2215 15.8483C23.8303 15.5954 24.5009 15.5285 25.1478 15.6563C25.7947 15.7841 26.389 16.1008 26.8562 16.5662C27.3231 17.0317 27.6413 17.6251 27.7708 18.2714C27.9003 18.9176 27.8351 19.5877 27.5832 20.197C27.3318 20.8062 26.9052 21.3272 26.357 21.6941C25.8093 22.0609 25.1648 22.2572 24.5054 22.258C24.0676 22.2585 23.634 22.1729 23.229 22.0059C22.8244 21.8389 22.4563 21.5938 22.1463 21.2847C21.8364 20.9756 21.5903 20.6085 21.4222 20.2044C21.2542 19.8002 21.167 19.3669 21.1666 18.9293L21.167 18.9297Z" fill="#E46E2C"/>
<path d="M48.1723 18.8969C48.1642 18.3866 47.9555 17.8999 47.5913 17.5421C47.2271 17.1842 46.7367 16.984 46.2259 16.9847C45.7152 16.9853 45.2253 17.1868 44.862 17.5455C44.4987 17.9043 44.2913 18.3915 44.2845 18.9019C44.2851 19.4172 44.4906 19.9111 44.8556 20.275C45.2206 20.6389 45.7153 20.843 46.2309 20.8423C46.7464 20.8416 47.2407 20.6363 47.6047 20.2715C47.9688 19.9067 48.173 19.4122 48.1723 18.8969Z" fill="#E46E2C"/>
<path d="M37.3088 18.911V18.9073C37.301 18.3969 37.0922 17.9102 36.7279 17.5524C36.3636 17.1946 35.8731 16.9943 35.3627 16.995C34.8518 16.9957 34.3617 17.1971 33.9987 17.5559C33.6351 17.9146 33.4277 18.4019 33.421 18.9123C33.4214 19.4276 33.6268 19.9216 33.992 20.2856C34.3568 20.6496 34.8518 20.8538 35.3672 20.8533C35.883 20.8527 36.3772 20.6475 36.7412 20.2827C37.1055 19.9179 37.3097 19.4234 37.3093 18.9081L37.3088 18.911Z" fill="#E46E2C"/>
<path d="M26.445 18.9247V18.9226C26.4371 18.4123 26.2284 17.9256 25.864 17.5678C25.4997 17.2099 25.0092 17.0097 24.4988 17.0103C23.988 17.011 23.4979 17.2125 23.1348 17.5712C22.7713 17.93 22.5638 18.4172 22.5571 18.9276C22.558 19.4429 22.763 19.9368 23.1281 20.3007C23.4933 20.6647 23.988 20.8688 24.5033 20.8682C25.0187 20.8676 25.513 20.6623 25.8773 20.2975C26.2412 19.9327 26.4454 19.4383 26.445 18.9231V18.9247Z" fill="#E46E2C"/>
</svg>
